<svg xmlns="http://www.w3.org/2000/svg" viewBox="0 0 240 160" role="img" aria-labelledby="title desc">
  <title id="title">Recycler</title>
  <desc id="desc">A turquoise recycling machine compressing loose metal into a neat orange block.</desc>
  <rect width="240" height="160" fill="#152c45" />
  <circle cx="197" cy="31" r="58" fill="#223f5d" />
  <path d="M0 139L240 101V160H0Z" fill="#1b3551" />
  <path d="M20 26h4m-2-2v4M207 112h4m-2-2v4M189 18h4m-2-2v4M41 87h3M106 19h3" stroke="#819fbd" stroke-width="2" />
  <g stroke="#18334a" stroke-width="2" stroke-linejoin="round" stroke-linecap="round">
    <path d="M47 126V43L66 29H158L180 46V126Z" fill="#6dada6" />
    <path d="M63 43H163V109H63Z" fill="#294962" />
    <path d="M88 61L114 45L140 62V91L114 107L88 90Z" fill="#577a86" />
    <path d="M85 62H142V78H85Z" fill="#9ac8bb" />
    <path d="M45 127H185V140H45Z" fill="#8bafbb" />
    <path d="M162 109L213 115V141H168Z" fill="#455f79" />
    <path d="M178 120L194 111L212 121V137L194 147L178 137Z" fill="#e4ab73" />
    <path d="M27 52L42 46L48 60L31 66ZM54 22L68 17L75 33L61 38ZM28 93L42 80L54 89L40 101Z" fill="#c49aac" />
    <path d="M104 44V55M124 43V55" stroke="#8de6cc" stroke-width="3" />
  </g>
</svg>
