<svg xmlns="http://www.w3.org/2000/svg" viewBox="0 0 240 160" role="img" aria-labelledby="title desc">
  <title id="title">Echo Chamber</title>
  <desc id="desc">Two violet resonance portals reflecting the same small glowing probe.</desc>
  <rect width="240" height="160" fill="#152c45" />
  <circle cx="197" cy="31" r="58" fill="#223f5d" />
  <path d="M0 139L240 101V160H0Z" fill="#1b3551" />
  <path d="M20 26h4m-2-2v4M207 112h4m-2-2v4M189 18h4m-2-2v4M41 87h3M106 19h3" stroke="#819fbd" stroke-width="2" />
  <g stroke="#18334a" stroke-width="2" stroke-linejoin="round" stroke-linecap="round">
    <ellipse cx="73" cy="85" rx="35" ry="62" fill="#8078a4" />
    <ellipse cx="73" cy="85" rx="24" ry="48" fill="#284660" />
    <ellipse cx="170" cy="85" rx="35" ry="62" fill="#ad8cae" />
    <ellipse cx="170" cy="85" rx="24" ry="48" fill="#284660" />
    <path d="M73 59L92 78L74 105L54 80ZM171 59L190 78L172 105L152 80Z" fill="#82d4c5" />
    <path d="M58 79H87M156 79H185" stroke="#e8d6a4" stroke-width="5" />
    <path d="M102 66Q120 52 140 66M104 86Q120 71 138 86M106 107Q120 92 136 107" fill="none" stroke="#9da9cc" stroke-width="3" />
    <path d="M53 144H93M151 144H190" stroke="#65849f" stroke-width="6" />
  </g>
</svg>
